<svg xmlns="http://www.w3.org/2000/svg" xmlns:xlink="http://www.w3.org/1999/xlink" width="200" zoomAndPan="magnify" viewBox="0 0 150 37.5" height="50" preserveAspectRatio="xMidYMid meet" version="1.0"><defs><g/><clipPath id="20babd770c"><path d="M 69.46875 5.90625 L 146.261719 5.90625 L 146.261719 9.644531 L 69.46875 9.644531 Z M 69.46875 5.90625 " clip-rule="nonzero"/></clipPath><clipPath id="8031e92f75"><path d="M 3.875 27.164062 L 67.28125 27.164062 L 67.28125 31.472656 L 3.875 31.472656 Z M 3.875 27.164062 " clip-rule="nonzero"/></clipPath></defs><g clip-path="url(#20babd770c)"><path fill="#d9d9d9" d="M 69.46875 5.90625 L 146.261719 5.90625 L 146.261719 9.644531 L 69.46875 9.644531 Z M 69.46875 5.90625 " fill-opacity="1" fill-rule="nonzero"/></g><g fill="#ef4445" fill-opacity="1"><g transform="translate(2.592447, 22.480605)"><g><path d="M 1.984375 0 L 1.984375 -16.546875 L 5.171875 -16.546875 L 12.484375 -6.484375 L 12.484375 -16.546875 L 16.21875 -16.546875 L 16.21875 0 L 13.03125 0 L 5.71875 -10.140625 L 5.71875 0 Z M 1.984375 0 "/></g></g></g><g fill="#ef4445" fill-opacity="1"><g transform="translate(19.567283, 22.480605)"><g><path d="M 9.828125 0.328125 C 8.109375 0.328125 6.582031 -0.0351562 5.25 -0.765625 C 3.925781 -1.503906 2.890625 -2.519531 2.140625 -3.8125 C 1.390625 -5.101562 1.015625 -6.59375 1.015625 -8.28125 C 1.015625 -9.957031 1.390625 -11.441406 2.140625 -12.734375 C 2.890625 -14.035156 3.925781 -15.050781 5.25 -15.78125 C 6.582031 -16.507812 8.109375 -16.875 9.828125 -16.875 C 11.566406 -16.875 13.097656 -16.507812 14.421875 -15.78125 C 15.742188 -15.050781 16.78125 -14.035156 17.53125 -12.734375 C 18.289062 -11.441406 18.671875 -9.957031 18.671875 -8.28125 C 18.671875 -6.59375 18.289062 -5.101562 17.53125 -3.8125 C 16.78125 -2.519531 15.742188 -1.503906 14.421875 -0.765625 C 13.097656 -0.0351562 11.566406 0.328125 9.828125 0.328125 Z M 4.84375 -8.28125 C 4.84375 -7.28125 5.054688 -6.398438 5.484375 -5.640625 C 5.910156 -4.890625 6.5 -4.300781 7.25 -3.875 C 8 -3.445312 8.859375 -3.234375 9.828125 -3.234375 C 10.828125 -3.234375 11.695312 -3.445312 12.4375 -3.875 C 13.1875 -4.300781 13.769531 -4.890625 14.1875 -5.640625 C 14.613281 -6.398438 14.828125 -7.28125 14.828125 -8.28125 C 14.828125 -9.269531 14.613281 -10.140625 14.1875 -10.890625 C 13.769531 -11.648438 13.1875 -12.242188 12.4375 -12.671875 C 11.695312 -13.097656 10.828125 -13.3125 9.828125 -13.3125 C 8.859375 -13.3125 8 -13.097656 7.25 -12.671875 C 6.5 -12.242188 5.910156 -11.648438 5.484375 -10.890625 C 5.054688 -10.140625 4.84375 -9.269531 4.84375 -8.28125 Z M 4.84375 -8.28125 "/></g></g></g><g fill="#ef4445" fill-opacity="1"><g transform="translate(38.031567, 22.480605)"><g><path d="M 5.953125 0 L 5.953125 -13.03125 L 0.703125 -13.03125 L 0.703125 -16.546875 L 14.96875 -16.546875 L 14.96875 -13.03125 L 9.71875 -13.03125 L 9.71875 0 Z M 5.953125 0 "/></g></g></g><g fill="#ef4445" fill-opacity="1"><g transform="translate(52.476695, 22.480605)"><g><path d="M 1.984375 0 L 1.984375 -16.546875 L 12.859375 -16.546875 L 12.859375 -13.375 L 5.71875 -13.375 L 5.71875 -9.953125 L 12.21875 -9.953125 L 12.21875 -6.8125 L 5.71875 -6.8125 L 5.71875 -3.1875 L 13.125 -3.1875 L 13.125 0 Z M 1.984375 0 "/></g></g></g><g fill="#3c82f6" fill-opacity="1"><g transform="translate(68.850501, 30.150528)"><g><path d="M 9.03125 0.3125 C 7.445312 0.3125 6.046875 -0.03125 4.828125 -0.71875 C 3.617188 -1.414062 2.671875 -2.375 1.984375 -3.59375 C 1.296875 -4.8125 0.953125 -6.210938 0.953125 -7.796875 C 0.953125 -9.390625 1.296875 -10.796875 1.984375 -12.015625 C 2.671875 -13.234375 3.617188 -14.1875 4.828125 -14.875 C 6.035156 -15.5625 7.425781 -15.90625 9 -15.90625 C 10.320312 -15.90625 11.53125 -15.648438 12.625 -15.140625 C 13.726562 -14.640625 14.65625 -13.925781 15.40625 -13 C 16.15625 -12.082031 16.679688 -11.003906 16.984375 -9.765625 L 13.328125 -9.765625 C 13.023438 -10.617188 12.492188 -11.296875 11.734375 -11.796875 C 10.984375 -12.296875 10.109375 -12.546875 9.109375 -12.546875 C 8.234375 -12.546875 7.445312 -12.34375 6.75 -11.9375 C 6.0625 -11.539062 5.523438 -10.984375 5.140625 -10.265625 C 4.753906 -9.554688 4.5625 -8.734375 4.5625 -7.796875 C 4.5625 -6.859375 4.753906 -6.03125 5.140625 -5.3125 C 5.523438 -4.601562 6.0625 -4.046875 6.75 -3.640625 C 7.4375 -3.242188 8.21875 -3.046875 9.09375 -3.046875 C 10.113281 -3.046875 11.007812 -3.3125 11.78125 -3.84375 C 12.5625 -4.375 13.113281 -5.082031 13.4375 -5.96875 L 17.09375 -5.96875 C 16.832031 -4.707031 16.320312 -3.601562 15.5625 -2.65625 C 14.8125 -1.71875 13.875 -0.988281 12.75 -0.46875 C 11.632812 0.0507812 10.394531 0.3125 9.03125 0.3125 Z M 9.03125 0.3125 "/></g></g></g><g fill="#3c82f6" fill-opacity="1"><g transform="translate(86.835131, 30.150528)"><g><path d="M 1.875 0 L 1.875 -15.59375 L 8.53125 -15.59375 C 9.71875 -15.59375 10.75 -15.375 11.625 -14.9375 C 12.507812 -14.507812 13.1875 -13.894531 13.65625 -13.09375 C 14.132812 -12.289062 14.375 -11.335938 14.375 -10.234375 C 14.375 -9.085938 14.113281 -8.097656 13.59375 -7.265625 C 13.070312 -6.441406 12.34375 -5.828125 11.40625 -5.421875 L 14.640625 0 L 10.53125 0 L 7.75 -4.859375 L 5.421875 -4.859375 L 5.421875 0 Z M 5.375 -7.84375 L 8.0625 -7.84375 C 8.9375 -7.84375 9.609375 -8.046875 10.078125 -8.453125 C 10.546875 -8.859375 10.78125 -9.441406 10.78125 -10.203125 C 10.78125 -10.960938 10.546875 -11.546875 10.078125 -11.953125 C 9.609375 -12.359375 8.9375 -12.5625 8.0625 -12.5625 L 5.375 -12.5625 Z M 5.375 -7.84375 "/></g></g></g><g fill="#3c82f6" fill-opacity="1"><g transform="translate(102.524325, 30.150528)"><g><path d="M 0.203125 0 L 6.390625 -15.59375 L 9.875 -15.59375 L 16.0625 0 L 12.28125 0 L 11.234375 -2.703125 L 5.03125 -2.703125 L 3.984375 0 Z M 5.953125 -5.484375 L 10.34375 -5.484375 L 8.125 -11.1875 Z M 5.953125 -5.484375 "/></g></g></g><g fill="#3c82f6" fill-opacity="1"><g transform="translate(118.79295, 30.150528)"><g><path d="M 1.875 0 L 1.875 -15.59375 L 11.65625 -15.59375 L 11.65625 -12.390625 L 5.421875 -12.390625 L 5.421875 -8.484375 L 11.078125 -8.484375 L 11.078125 -5.375 L 5.421875 -5.375 L 5.421875 0 Z M 1.875 0 "/></g></g></g><g fill="#3c82f6" fill-opacity="1"><g transform="translate(131.428989, 30.150528)"><g><path d="M 5.609375 0 L 5.609375 -12.28125 L 0.671875 -12.28125 L 0.671875 -15.59375 L 14.109375 -15.59375 L 14.109375 -12.28125 L 9.15625 -12.28125 L 9.15625 0 Z M 5.609375 0 "/></g></g></g><g clip-path="url(#8031e92f75)"><path fill="#d9d9d9" d="M 3.875 27.164062 L 67.28125 27.164062 L 67.28125 31.472656 L 3.875 31.472656 Z M 3.875 27.164062 " fill-opacity="1" fill-rule="nonzero"/></g></svg>